<svg xmlns="http://www.w3.org/2000/svg" version="1.1" xmlns:xlink="http://www.w3.org/1999/xlink" xmlns:svgjs="http://svgjs.dev/svgjs" width="2048" height="900" preserveAspectRatio="none" viewBox="0 0 2048 900"><g mask="url(&quot;#SvgjsMask1121&quot;)" fill="none"><rect width="2048" height="900" x="0" y="0" fill="#1e3266"></rect><path d="M2048.0000000000005 900L0 900 L0 416.82Q22.98 337.4, 102.4 360.37Q138.75 294.31, 204.8 330.66Q282.59 306.06, 307.20000000000005 383.85Q324.05 298.3, 409.6 315.15Q487.13 222.02, 580.2666666666667 299.55Q657.87 274.75, 682.6666666666666 352.36Q752.88 320.17, 785.0666666666666 390.38Q825.88 328.79, 887.4666666666666 369.61Q989.87 301.35, 1058.1333333333332 403.75Q1175.29 350.24, 1228.8 467.4Q1290.44 358.37, 1399.4666666666667 420.01Q1413.75 263.63, 1570.1333333333334 277.91Q1664.19 201.3, 1740.8000000000002 295.36Q1857.72 309.88, 1843.2000000000003 426.79Q1920.41 401.6, 1945.6000000000004 478.81Q1985.56 416.37, 2048.0000000000005 456.33z" fill="#182f5d"></path><path d="M2116.2666666666673 900L0 900 L0 511.23Q56.2 396.76, 170.66666666666666 452.96Q245.5 425.39, 273.06666666666666 500.22Q387.56 512.31, 375.4666666666667 626.8Q364.35 445.01, 546.1333333333333 433.89Q636.8 422.16, 648.5333333333333 512.82Q693.25 455.14, 750.9333333333333 499.86Q896.31 474.57, 921.5999999999999 619.95Q982.95 510.63, 1092.2666666666667 571.98Q1214.59 523.64, 1262.9333333333334 645.96Q1293.44 574.07, 1365.3333333333335 604.57Q1385.4 522.24, 1467.7333333333336 542.31Q1525.81 497.98, 1570.1333333333337 556.06Q1606.54 421.8, 1740.8000000000004 458.2Q1799.27 414.26, 1843.2000000000005 472.73Q1874.46 401.58, 1945.6000000000006 432.84Q2039.24 355.81, 2116.2666666666673 449.45z" fill="#25467d"></path><path d="M2048.0000000000005 900L0 900 L0 680.78Q70.09 580.21, 170.66666666666666 650.3Q251.68 628.91, 273.06666666666666 709.93Q299.48 565.67, 443.73333333333335 592.08Q545.36 523.04, 614.4 624.67Q749.28 588.88, 785.0666666666666 723.76Q859.61 627.64, 955.7333333333332 702.19Q981.18 625.24, 1058.1333333333332 650.69Q1177.08 598.97, 1228.8 717.92Q1292.78 679.49, 1331.2 743.47Q1375.15 616.75, 1501.8666666666668 660.7Q1516.75 573.18, 1604.2666666666669 588.06Q1708.59 521.72, 1774.9333333333336 626.04Q1888.74 637.45, 1877.3333333333337 751.26Q1981.75 685.01, 2048.0000000000005 789.42z" fill="rgba(53, 108, 177, 0.91)"></path><path d="M2150.4 900L0 900 L0 927.32Q56.98 881.9, 102.4 938.88Q166.44 832.26, 273.06666666666666 896.3Q295.99 748.56, 443.73333333333335 771.48Q485.25 710.6, 546.1333333333333 752.12Q656.17 691.49, 716.8 801.53Q830.26 812.59, 819.1999999999999 926.06Q816.21 820.67, 921.5999999999999 817.68Q962.81 756.49, 1023.9999999999999 797.7Q1097.53 700.57, 1194.6666666666665 774.1Q1307.61 716.37, 1365.3333333333333 829.31Q1459.84 753.15, 1536 847.66Q1662.47 803.47, 1706.6666666666667 929.94Q1724.06 844.93, 1809.0666666666668 862.32Q1899.71 782.3, 1979.7333333333336 872.94Q2021.67 744.21, 2150.4 786.15z" fill="white"></path></g><defs><mask id="SvgjsMask1121"><rect width="2048" height="900" fill="#ffffff"></rect></mask></defs></svg>